<svg width="949" height="461" viewBox="0 0 949 461" fill="none" xmlns="http://www.w3.org/2000/svg">
<path d="M714.682 397.545C674.811 395.489 639.072 382.575 608.265 356.862C587.345 339.401 571.397 318.15 560.344 293.235C560.119 292.727 559.919 292.203 559.741 291.676C559.697 291.545 559.783 291.371 559.839 291.036H568.393C571.033 291.036 573.675 291.11 576.311 291.006C577.63 290.954 578.299 291.411 578.87 292.596C582.421 299.955 586.563 306.982 591.346 313.604C615.391 346.899 647.358 368.196 687.56 376.957C700.444 379.765 713.5 380.772 726.652 380.159C782.734 377.548 830.775 345.945 856.702 299.736C866.03 283.111 872.117 265.346 874.897 246.5C886.223 169.751 840.012 96.3007 765.987 73.3127C754.344 69.6967 742.433 67.5477 730.258 66.7027C665.737 62.2207 606.313 97.9787 578.684 154.442C577.918 156.008 577.119 156.674 575.295 156.624C570.023 156.479 564.744 156.572 559.37 156.572C559.179 155.478 559.781 154.69 560.14 153.867C567.739 136.506 577.861 120.761 590.607 106.738C612 83.2007 637.849 66.5777 668.229 57.0707C680.242 53.3127 692.524 50.9087 705.081 49.9417C715.711 49.1237 726.354 49.0507 736.95 50.1467C770.803 53.6467 801.214 65.8607 827.783 87.1457C859.328 112.418 879.822 144.832 889.163 184.194C891.716 194.948 893.292 205.858 893.299 216.951C893.303 224.466 893.515 231.982 892.842 239.487C891.5 254.459 888.237 269 883.032 283.088C863.502 335.937 820.372 375.721 766.105 390.994C755.619 393.945 744.944 395.872 734.073 396.685C730.965 396.917 727.866 397.256 724.762 397.545H714.682Z" fill="#EF3C40"/>
<path d="M54.6819 263.145C55.2519 263.082 55.4019 262.613 55.6379 262.2C57.3819 259.147 59.1159 256.089 60.8999 253.06C62.5529 250.252 64.4179 249.853 67.0089 251.748C69.3329 253.447 71.6719 255.115 74.1809 256.539C78.2779 258.864 82.6569 260.239 87.3569 260.573C90.6159 260.804 93.7449 260.31 96.6319 258.728C102.647 255.432 104.455 248.55 100.888 242.682C99.4889 240.379 97.5289 238.634 95.3549 237.102C92.0039 234.74 88.3179 233.016 84.5509 231.451C80.7879 229.887 77.0549 228.267 73.5229 226.215C70.2619 224.32 67.2319 222.13 64.4609 219.558C49.4549 205.629 53.2489 179.237 75.2679 171.991C86.1939 168.396 97.0319 169.358 107.639 173.529C111.515 175.053 115.184 177.002 118.576 179.439C120.929 181.131 121.31 182.998 119.755 185.395C118.101 187.942 116.41 190.466 114.693 192.973C112.617 196.004 110.937 196.352 107.884 194.427C105.044 192.638 102.213 190.832 99.1369 189.464C94.5959 187.446 89.9019 186.378 84.9079 187.269C84.6719 187.311 84.4309 187.323 84.1959 187.372C75.2409 189.237 72.1629 198.582 78.2499 205.433C80.0239 207.43 82.1849 208.935 84.4769 210.265C87.8029 212.195 91.3519 213.647 94.8949 215.11C99.2559 216.911 103.513 218.92 107.528 221.414C110.252 223.106 112.817 225.008 115.13 227.239C128.4 240.036 126.9 260.49 111.891 271.213C105.708 275.63 98.6959 277.6 91.1979 277.851C84.1899 278.084 77.3169 277.161 70.7169 274.671C64.8869 272.472 59.6819 269.283 55.3089 264.796C55.1719 264.656 54.8939 264.652 54.6819 264.584V263.145Z" fill="white"/>
<path d="M335.025 204.125C335.025 208.601 335.067 213.077 334.998 217.551C334.978 218.811 335.374 219.207 336.62 219.199C344.372 219.15 352.128 219.312 359.875 219.116C367.673 218.917 374.001 212.372 374.311 204.571C374.63 196.508 368.049 189.546 359.66 189.37C351.991 189.208 344.316 189.356 336.644 189.308C335.4 189.3 334.983 189.683 335.001 190.939C335.063 195.333 335.025 199.729 335.025 204.125ZM371.793 234.196C376.608 243.128 381.382 251.986 386.16 260.845C387.942 264.149 389.734 267.449 391.514 270.756C391.817 271.317 392.142 271.879 392.354 272.478C393.007 274.33 392.148 275.872 390.235 276.266C389.616 276.393 388.964 276.391 388.328 276.392C384.008 276.402 379.687 276.317 375.371 276.43C373.103 276.489 371.74 275.753 370.684 273.604C364.694 261.419 358.52 249.324 352.493 237.156C351.789 235.734 351.04 235.193 349.434 235.242C345.198 235.371 340.957 235.276 336.717 235.29C334.954 235.296 334.93 235.319 334.928 237.147C334.918 245.146 334.923 253.145 334.923 261.143C334.923 264.662 334.925 268.182 334.923 271.701C334.92 275.605 334.161 276.389 330.356 276.396C326.837 276.403 323.317 276.398 319.798 276.396C319.318 276.396 318.835 276.424 318.359 276.378C316.421 276.189 315.491 275.239 315.36 273.313C315.322 272.757 315.351 272.194 315.351 271.635C315.35 239.801 315.35 207.967 315.351 176.134C315.351 175.574 315.323 175.012 315.358 174.455C315.487 172.409 316.452 171.487 318.547 171.377C318.707 171.369 318.867 171.373 319.027 171.373C333.344 171.38 347.663 171.251 361.977 171.44C372.454 171.578 380.983 176.06 387.334 184.359C397.882 198.146 395.386 217.057 381.71 228.049C379.27 230.01 376.623 231.639 373.79 232.977C373.155 233.276 372.399 233.395 371.793 234.196Z" fill="white"/>
<path d="M765.025 204.679C765.025 209.634 765.053 214.59 765.003 219.544C764.991 220.669 765.295 221.071 766.473 221.06C772.787 221.002 779.104 221.152 785.414 220.977C791.429 220.811 795.958 217.837 798.682 212.537C804.697 200.837 797.206 188.036 784.146 188.241C778.393 188.331 772.637 188.26 766.882 188.253C765.042 188.25 765.015 188.115 765.02 190.054C765.033 194.929 765.024 199.804 765.025 204.679ZM743.713 226.046V173.997C743.713 173.357 743.744 172.716 743.711 172.078C743.559 169.186 745.379 168.046 747.833 168.064C760.545 168.16 773.257 168.026 785.969 168.13C807.377 168.304 824.218 187.531 821.641 208.726C819.406 227.105 803.776 240.994 785.247 241.052C779.33 241.071 773.414 241.045 767.497 241.059C764.769 241.066 765.03 240.724 765.028 243.441C765.019 255.034 765.024 266.627 765.024 278.22C765.024 278.78 764.967 279.346 765.034 279.898C765.373 282.742 763.495 284.417 760.758 284.303C756.449 284.123 752.126 284.255 747.808 284.255C747.569 284.255 747.328 284.264 747.089 284.251C744.963 284.126 743.91 283.111 743.738 280.971C743.68 280.257 743.713 279.534 743.713 278.814C743.713 261.224 743.713 243.636 743.713 226.046Z" fill="white"/>
<path d="M717.094 207.892C717.094 218.37 716.912 228.851 717.131 239.324C717.595 261.523 702.387 280.055 679.128 283.66C670.176 285.047 661.358 284.249 653.026 280.628C635.8 273.143 626.676 259.848 626.062 241.094C625.687 229.669 625.98 218.222 625.994 206.785C625.999 203.678 627.074 202.625 630.18 202.613C634.498 202.596 638.818 202.604 643.137 202.609C646.961 202.613 647.818 203.448 647.82 207.212C647.826 217.61 647.823 228.007 647.822 238.405C647.822 241.291 647.976 244.151 648.84 246.94C651.665 256.063 657.983 261.135 667.248 262.608C672.304 263.413 677.304 262.932 682.048 260.838C689.363 257.612 693.529 251.908 694.949 244.134C695.337 242.012 695.4 239.848 695.398 237.682C695.38 216.247 695.387 194.812 695.387 173.377C695.387 172.737 695.364 172.096 695.393 171.457C695.493 169.294 696.513 168.156 698.63 168.131C703.668 168.073 708.707 168.074 713.746 168.128C715.807 168.15 716.957 169.373 717.085 171.421C717.12 171.979 717.094 172.54 717.094 173.1V207.892Z" fill="white"/>
<path d="M252.305 207.057C247.232 218.449 242.384 229.337 237.4 240.528C247.575 240.514 257.387 240.564 267.512 240.493C262.395 229.243 257.455 218.382 252.305 207.057ZM292.868 276.397C291.268 276.397 289.656 276.273 288.071 276.423C284.771 276.735 282.894 275.233 281.665 272.246C279.844 267.816 277.689 263.524 275.807 259.118C275.18 257.649 274.394 257.147 272.772 257.156C259.254 257.229 245.735 257.236 232.217 257.15C230.466 257.139 229.695 257.772 229.048 259.274C227.091 263.823 224.932 268.284 222.981 272.836C221.889 275.382 220.111 276.478 217.381 276.417C213.703 276.335 210.023 276.401 206.343 276.391C205.786 276.39 205.215 276.387 204.674 276.273C202.926 275.905 202.126 274.614 202.596 272.888C202.761 272.278 203.087 271.711 203.354 271.132C218.488 238.352 233.623 205.573 248.757 172.794C249.436 171.323 250.06 169.904 252.093 169.847C254.755 169.773 255.306 170.009 256.487 172.586C264.24 189.505 271.989 206.426 279.731 223.35C287.009 239.257 294.279 255.168 301.548 271.078C303.326 274.97 302.423 276.379 298.147 276.396C296.387 276.403 294.627 276.397 292.868 276.397Z" fill="white"/>
<path d="M159.728 231.916V193.284C159.728 192.884 159.731 192.484 159.728 192.084C159.699 189.097 160.086 189.336 157.086 189.333C150.927 189.326 144.769 189.331 138.61 189.331C138.05 189.331 137.489 189.352 136.931 189.317C134.98 189.195 133.944 188.268 133.913 186.347C133.847 182.349 133.846 178.348 133.913 174.35C133.945 172.433 134.99 171.503 136.939 171.384C137.497 171.35 138.058 171.372 138.618 171.372C159.174 171.372 179.729 171.372 200.285 171.372C200.765 171.372 201.246 171.361 201.725 171.375C204.159 171.452 205.086 172.293 205.123 174.702C205.181 178.46 205.18 182.221 205.124 185.979C205.089 188.398 204.17 189.304 201.749 189.317C195.19 189.352 188.631 189.33 182.073 189.331C181.513 189.331 180.953 189.35 180.394 189.331C179.675 189.307 179.385 189.663 179.396 190.349C179.406 190.988 179.392 191.628 179.392 192.269C179.391 218.503 179.391 244.737 179.391 270.972C179.391 271.452 179.396 271.932 179.39 272.412C179.351 275.436 178.414 276.369 175.314 276.392C172.115 276.416 168.916 276.397 165.716 276.397C164.836 276.397 163.955 276.431 163.077 276.387C160.724 276.269 159.757 275.309 159.738 272.947C159.703 268.469 159.728 263.989 159.728 259.511V231.916Z" fill="white"/>
<path d="M575.113 232.004V271.112C575.113 271.672 575.124 272.233 575.11 272.792C575.047 275.421 574.134 276.344 571.435 276.387C568.798 276.429 566.157 276.398 563.518 276.398C561.999 276.398 560.477 276.44 558.96 276.386C556.5 276.299 555.538 275.292 555.449 272.809C555.428 272.249 555.445 271.69 555.445 271.129C555.445 244.817 555.447 218.505 555.442 192.193C555.442 188.91 555.722 189.345 552.678 189.336C546.68 189.318 540.682 189.331 534.684 189.331C534.125 189.331 533.564 189.346 533.006 189.325C530.696 189.237 529.771 188.404 529.737 186.134C529.678 182.296 529.681 178.456 529.736 174.618C529.768 172.322 530.678 171.473 532.958 171.378C533.517 171.355 534.078 171.372 534.637 171.372C555.111 171.372 575.585 171.372 596.058 171.373C596.778 171.373 597.503 171.337 598.217 171.405C599.873 171.563 600.874 172.502 600.903 174.192C600.973 178.27 600.979 182.35 600.907 186.427C600.872 188.397 599.785 189.304 597.584 189.318C592.146 189.354 586.708 189.331 581.269 189.331C579.75 189.331 578.225 189.401 576.712 189.31C575.423 189.233 575.024 189.756 575.095 190.978C575.174 192.333 575.113 193.696 575.113 195.056V232.004Z" fill="white"/>
<path d="M431.336 232.084V192.499C431.336 192.019 431.348 191.539 431.334 191.059C431.283 189.38 431.28 189.344 429.577 189.338C424.219 189.319 418.861 189.331 413.503 189.331C411.983 189.331 410.463 189.358 408.944 189.323C406.501 189.267 405.561 188.391 405.533 186.027C405.49 182.269 405.494 178.51 405.532 174.751C405.556 172.37 406.499 171.408 408.872 171.385C413.27 171.343 417.669 171.372 422.067 171.372C438.621 171.372 455.174 171.372 471.728 171.372C472.368 171.372 473.009 171.347 473.648 171.382C475.747 171.497 476.676 172.384 476.708 174.538C476.765 178.375 476.763 182.215 476.712 186.053C476.681 188.448 475.774 189.279 473.285 189.322C471.127 189.359 468.967 189.331 466.808 189.331C462.089 189.331 457.371 189.369 452.653 189.306C451.414 189.29 450.859 189.646 450.992 190.921C451.05 191.475 451.002 192.04 451.002 192.599C451.002 218.83 451.002 245.06 451.001 271.29C451.001 275.815 450.418 276.396 445.885 276.397C442.366 276.398 438.848 276.415 435.329 276.392C432.186 276.37 431.343 275.53 431.341 272.389C431.33 258.954 431.336 245.519 431.336 232.084Z" fill="white"/>
<path d="M513.064 224.036V271.542C513.064 272.102 513.09 272.664 513.057 273.222C512.945 275.133 511.997 276.306 510.124 276.347C505.567 276.446 501.006 276.444 496.45 276.357C494.437 276.319 493.492 275.17 493.396 273.107C493.37 272.549 493.39 271.988 493.39 271.429V176.415C493.39 175.776 493.363 175.134 493.399 174.496C493.515 172.461 494.499 171.419 496.563 171.394C501.042 171.34 505.521 171.339 509.999 171.399C511.909 171.425 512.915 172.489 513.053 174.371C513.1 175.007 513.064 175.65 513.064 176.289V224.036Z" fill="white"/>
<path d="M617.711 193.7C624.31 183.361 630.699 173.35 637.284 163.032C643.957 173.356 650.441 183.392 657.104 193.7H617.711Z" fill="#EF3C40"/>
<path d="M275.736 307.85C274.607 307.052 273.401 306.433 272.117 305.99C270.833 305.546 269.461 305.325 268 305.325C266.163 305.325 264.481 305.674 262.953 306.371C261.426 307.069 260.114 308.016 259.019 309.212C257.924 310.408 257.065 311.809 256.446 313.414C255.826 315.021 255.516 316.732 255.516 318.547C255.516 320.364 255.826 322.069 256.446 323.663C257.065 325.258 257.924 326.648 259.019 327.832C260.114 329.018 261.426 329.954 262.953 330.64C264.481 331.327 266.163 331.669 268 331.669C268.775 331.669 269.544 331.615 270.308 331.503C271.071 331.393 271.885 331.249 272.748 331.072V322.368C272.748 321.948 272.869 321.598 273.113 321.321C273.357 321.044 273.722 320.906 274.209 320.906H283.24C283.572 320.906 283.925 321.038 284.302 321.304C284.678 321.571 284.867 321.925 284.867 322.368V338.447C284.867 339.045 284.546 339.533 283.904 339.909C282.863 340.618 281.713 341.227 280.451 341.736C279.189 342.246 277.872 342.666 276.5 342.998C275.127 343.33 273.738 343.579 272.333 343.746C270.927 343.912 269.561 343.995 268.233 343.995C265.886 343.995 263.634 343.696 261.476 343.098C259.318 342.5 257.298 341.648 255.417 340.539C253.535 339.433 251.825 338.11 250.287 336.57C248.748 335.031 247.426 333.326 246.319 331.454C245.212 329.582 244.36 327.567 243.763 325.408C243.165 323.248 242.866 320.995 242.866 318.647C242.866 316.299 243.165 314.045 243.763 311.886C244.36 309.727 245.212 307.701 246.319 305.807C247.426 303.913 248.748 302.191 250.287 300.641C251.825 299.09 253.535 297.767 255.417 296.67C257.298 295.575 259.318 294.722 261.476 294.113C263.634 293.503 265.886 293.199 268.233 293.199C270.889 293.199 273.395 293.57 275.753 294.312C278.11 295.054 280.329 296.122 282.41 297.518C282.786 297.74 283.074 298.033 283.273 298.398C283.472 298.764 283.427 299.179 283.14 299.644L277.761 307.418C277.473 307.773 277.186 308.011 276.898 308.132C276.61 308.254 276.223 308.161 275.736 307.85Z" fill="#EF3B3F"/>
<path d="M331.183 310.209C331.183 309.545 331.061 308.88 330.818 308.216C330.574 307.552 330.231 306.942 329.788 306.389C329.345 305.835 328.814 305.37 328.195 304.993C327.575 304.617 326.889 304.373 326.136 304.263C325.516 304.219 324.935 304.18 324.393 304.147C323.85 304.113 323.259 304.097 322.617 304.097H318.035V316.289H324.144C324.542 316.289 324.896 316.277 325.206 316.256C325.516 316.233 325.859 316.2 326.236 316.156C327.01 316.067 327.707 315.84 328.328 315.475C328.947 315.109 329.467 314.655 329.888 314.112C330.308 313.57 330.629 312.961 330.851 312.285C331.072 311.61 331.183 310.918 331.183 310.209ZM305.186 295.459C305.186 294.993 305.307 294.623 305.551 294.346C305.794 294.069 306.16 293.931 306.646 293.931H328.095C330.374 293.931 332.511 294.357 334.503 295.21C336.495 296.063 338.232 297.22 339.716 298.682C341.198 300.143 342.366 301.854 343.219 303.813C344.07 305.774 344.497 307.861 344.497 310.076C344.497 311.583 344.292 313.017 343.883 314.379C343.473 315.74 342.903 317.015 342.173 318.199C341.442 319.384 340.573 320.458 339.566 321.422C338.559 322.385 337.458 323.21 336.263 323.897L344.796 339.976C344.95 340.286 345.149 340.651 345.393 341.072C345.637 341.493 345.759 341.858 345.759 342.168C345.759 342.522 345.642 342.794 345.41 342.982C345.178 343.171 344.862 343.265 344.464 343.265H333.075C332.699 343.265 332.362 343.154 332.063 342.933C331.764 342.711 331.57 342.412 331.482 342.035L323.413 326.854H318.035V341.836C318.035 342.789 317.525 343.265 316.508 343.265H306.646C306.204 343.265 305.85 343.148 305.584 342.916C305.319 342.684 305.186 342.323 305.186 341.836V295.459Z" fill="#EF3B3F"/>
<path d="M373.016 318.614C373.016 320.453 373.325 322.169 373.944 323.763C374.563 325.358 375.431 326.748 376.547 327.932C377.663 329.118 378.984 330.048 380.51 330.723C382.035 331.399 383.715 331.736 385.55 331.736C387.384 331.736 389.07 331.399 390.606 330.723C392.142 330.048 393.469 329.118 394.585 327.932C395.702 326.748 396.569 325.358 397.188 323.763C397.807 322.169 398.117 320.453 398.117 318.614C398.117 316.799 397.807 315.088 397.188 313.481C396.569 311.876 395.702 310.474 394.585 309.279C393.469 308.083 392.142 307.141 390.606 306.455C389.07 305.768 387.384 305.425 385.55 305.425C383.715 305.425 382.035 305.768 380.51 306.455C378.984 307.141 377.663 308.083 376.547 309.279C375.431 310.474 374.563 311.876 373.944 313.481C373.325 315.088 373.016 316.799 373.016 318.614ZM360.167 318.647C360.167 316.3 360.466 314.046 361.064 311.886C361.662 309.727 362.514 307.701 363.622 305.807C364.729 303.914 366.052 302.191 367.592 300.641C369.131 299.091 370.842 297.767 372.725 296.671C374.607 295.575 376.629 294.722 378.788 294.113C380.948 293.504 383.202 293.199 385.55 293.199C387.875 293.199 390.123 293.504 392.294 294.113C394.464 294.722 396.491 295.575 398.374 296.671C400.257 297.767 401.973 299.091 403.524 300.641C405.074 302.191 406.397 303.914 407.494 305.807C408.59 307.701 409.443 309.727 410.052 311.886C410.661 314.046 410.966 316.3 410.966 318.647C410.966 320.995 410.661 323.249 410.052 325.408C409.443 327.567 408.59 329.583 407.494 331.454C406.397 333.326 405.074 335.031 403.524 336.57C401.973 338.11 400.257 339.433 398.374 340.54C396.491 341.648 394.464 342.501 392.294 343.098C390.123 343.696 387.875 343.995 385.55 343.995C383.202 343.995 380.948 343.696 378.788 343.098C376.629 342.501 374.607 341.648 372.725 340.54C370.842 339.433 369.131 338.11 367.592 336.57C366.052 335.031 364.729 333.326 363.622 331.454C362.514 329.583 361.662 327.567 361.064 325.408C360.466 323.249 360.167 320.995 360.167 318.647Z" fill="#EF3B3F"/>
<path d="M442.375 323.59C442.375 325.23 442.602 326.621 443.057 327.763C443.511 328.904 444.11 329.835 444.853 330.556C445.596 331.277 446.461 331.803 447.449 332.135C448.435 332.468 449.461 332.634 450.526 332.634C451.635 332.634 452.683 332.441 453.67 332.052C454.656 331.664 455.522 331.088 456.265 330.322C457.007 329.559 457.595 328.611 458.028 327.481C458.46 326.35 458.677 325.053 458.677 323.59V295.394C458.677 294.995 458.815 294.652 459.092 294.363C459.369 294.075 459.739 293.931 460.204 293.931H469.899C470.408 293.931 470.807 294.08 471.094 294.379C471.382 294.678 471.526 295.016 471.526 295.393V323.399C471.526 327.275 470.956 330.53 469.816 333.165C468.676 335.801 467.144 337.922 465.218 339.528C463.292 341.133 461.062 342.284 458.527 342.983C455.993 343.68 453.332 344.028 450.542 344.028C447.753 344.028 445.086 343.669 442.541 342.949C439.995 342.23 437.76 341.056 435.834 339.428C433.908 337.8 432.375 335.674 431.235 333.049C430.095 330.425 429.526 327.208 429.526 323.399V295.393C429.526 295.016 429.652 294.678 429.906 294.379C430.16 294.08 430.475 293.931 430.85 293.931H440.785C441.116 293.931 441.464 294.069 441.828 294.347C442.192 294.623 442.375 294.973 442.375 295.394V323.59Z" fill="#EF3B3F"/>
<path d="M516.149 310.009C516.149 309.345 516.033 308.68 515.8 308.016C515.568 307.351 515.23 306.759 514.788 306.238C514.344 305.718 513.808 305.291 513.177 304.959C512.546 304.627 511.833 304.461 511.036 304.461H503.997V315.557H511.036C511.833 315.557 512.551 315.397 513.194 315.075C513.836 314.754 514.373 314.339 514.804 313.829C515.236 313.321 515.568 312.734 515.8 312.069C516.033 311.405 516.149 310.718 516.149 310.009ZM491.148 295.458C491.148 294.992 491.269 294.622 491.513 294.345C491.756 294.069 492.122 293.93 492.609 293.93H513.825C515.352 293.93 516.791 294.141 518.141 294.561C519.491 294.982 520.731 295.564 521.86 296.305C522.989 297.047 524.006 297.933 524.915 298.963C525.822 299.992 526.59 301.106 527.221 302.302C527.852 303.497 528.334 304.755 528.666 306.072C528.998 307.39 529.164 308.725 529.164 310.075C529.164 312.069 528.804 314.018 528.085 315.922C527.366 317.827 526.341 319.522 525.014 321.005C523.686 322.489 522.092 323.692 520.233 324.61C518.374 325.53 516.315 326 514.057 326.022H503.997V341.835C503.997 342.788 503.488 343.264 502.469 343.264H492.609C492.166 343.264 491.812 343.148 491.546 342.915C491.281 342.683 491.148 342.322 491.148 341.835V295.458Z" fill="#EF3B3F"/>
</svg>
